<svg version="1.1" xmlns="http://www.w3.org/2000/svg" xmlns:xlink="http://www.w3.org/1999/xlink" width="500" height="500"><defs><linearGradient x1="250" y1="197.32702" x2="250" y2="302.67298" gradientUnits="userSpaceOnUse" id="color-1"><stop offset="0" stop-color="#009d61"></stop><stop offset="1" stop-color="#00ffa1"></stop></linearGradient></defs><g data-paper-data="{&quot;description&quot;:&quot;Logo for sign language\n======================\n\nThis logo was generated by MarkMaker at http://emblemmatic.org/markmaker/ and may be composed of elements designed by others.\n\nThe font is Jura Regular designed by Daniel Johnson and released under the OFL license via Google Fonts: https://www.google.com/fonts/specimen/Jura. The font includes this copyright statement: Copyright 2009, 2010, 2011 by Daniel Johnson (il.basso.buffo@gmail.com). Released under the terms of the Open Font License v1.1.\n\nMarkMaker uses semantic data from the Princeton University WordNet database http://wordnet.princeton.edu and font descriptions from Google Fonts https://www.google.com/fonts.&quot;}" fill="none" fill-rule="nonzero" stroke="none" stroke-width="none" stroke-linecap="butt" stroke-linejoin="miter" stroke-miterlimit="10" stroke-dasharray="" stroke-dashoffset="0" font-family="none" font-weight="none" font-size="none" text-anchor="none" style="mix-blend-mode: normal"><path d="M50,250c0,-56.63066 89.54305,-102.53887 200,-102.53887c110.45695,0 200,45.90822 200,102.53887c0,56.63066 -89.54305,102.53887 -200,102.53887c-110.45695,0 -200,-45.90822 -200,-102.53887z" fill="none" stroke="#00d181" stroke-width="3.5"></path><g data-paper-data="{&quot;elementType&quot;:&quot;logo&quot;}" fill="url(#color-1)" stroke="none" stroke-width="1"><g data-paper-data="{&quot;elementType&quot;:&quot;text&quot;}"><g data-paper-data="{&quot;baseline&quot;:62.6953125,&quot;elementType&quot;:&quot;row&quot;}"><g data-paper-data="{&quot;baselineProportion&quot;:0.7579693034238488,&quot;fontSize&quot;:100,&quot;baseline&quot;:62.6953125,&quot;elementType&quot;:&quot;word&quot;}"><path d="M203.96951,234.86694c-1.24743,0 -2.29021,-0.18517 -3.12833,-0.5555c-0.83812,-0.37033 -1.44234,-0.89659 -1.81268,-1.57878c-0.37033,-0.68219 -0.61397,-1.35463 -0.73092,-2.01733c-0.11695,-0.6627 -0.17542,-1.44234 -0.17542,-2.33894c0,-1.40336 0.50677,-2.10504 1.52031,-2.10504c1.01354,0 1.52031,0.64321 1.52031,1.92962c0,1.3254 0.22415,2.26097 0.67244,2.80672c0.4483,0.54575 1.29616,0.81863 2.54359,0.81863h14.5014c2.29995,0 3.44993,-1.44234 3.44993,-4.32703c0,-1.44234 -0.3216,-2.62156 -0.96481,-3.53764c-0.64321,-0.91608 -1.47158,-1.37412 -2.48512,-1.37412h-13.21499c-5.02871,0 -7.54307,-2.53385 -7.54307,-7.60154c0,-2.33894 0.60423,-4.10288 1.81268,-5.29184c1.20845,-1.18896 3.31349,-1.78344 6.31513,-1.78344h13.15651c1.24743,0 2.29021,0.18517 3.12833,0.5555c0.83812,0.37033 1.44234,0.90634 1.81268,1.60802c0.37033,0.70168 0.61397,1.38387 0.73092,2.04657c0.11695,0.6627 0.17542,1.44234 0.17542,2.33894c0,1.36438 -0.50677,2.04657 -1.52031,2.04657c-1.01354,0 -1.52031,-0.64321 -1.52031,-1.92962c0,-1.36438 -0.23389,-2.3097 -0.70168,-2.83596c-0.46779,-0.52626 -1.30591,-0.78939 -2.51436,-0.78939h-14.38445c-2.29995,0 -3.44993,1.34489 -3.44993,4.03466c0,1.48133 0.3216,2.61181 0.96481,3.39146c0.64321,0.77965 1.47158,1.16947 2.48512,1.16947h13.27346c2.72876,0 4.65838,0.76015 5.78887,2.28046c1.13049,1.52031 1.69573,3.41095 1.69573,5.67192c0,2.4169 -0.61397,4.24907 -1.84191,5.4965c-1.22794,1.24743 -3.30375,1.87115 -6.22742,1.87115z" data-paper-data="{&quot;elementType&quot;:&quot;letter&quot;,&quot;baseline&quot;:45.01953125,&quot;baselineProportion&quot;:1,&quot;fontSize&quot;:100}"></path><path d="M232.51248,235.56862c-0.97456,0 -1.46183,-0.62372 -1.46183,-1.87115v-24.55882c0,-1.28641 0.50677,-1.92962 1.52031,-1.92962c1.01354,0 1.52031,0.64321 1.52031,1.92962v24.55882c0,1.24743 -0.52626,1.87115 -1.57878,1.87115M232.57095,197.32702c0.62372,0 1.27667,0.23389 1.95886,0.70168c0.68219,0.46779 1.02328,1.03303 1.02328,1.69573c0,0.6627 -0.34109,1.22794 -1.02328,1.69573c-0.68219,0.46779 -1.33514,0.70168 -1.95886,0.70168c-0.6627,0 -1.3254,-0.23389 -1.9881,-0.70168c-0.6627,-0.46779 -0.99405,-1.03303 -0.99405,-1.69573c0,-0.6627 0.33135,-1.22794 0.99405,-1.69573c0.6627,-0.46779 1.3254,-0.70168 1.9881,-0.70168z" data-paper-data="{&quot;elementType&quot;:&quot;letter&quot;,&quot;baseline&quot;:62.6953125,&quot;baselineProportion&quot;:0.981651376146789,&quot;fontSize&quot;:100}"></path><path d="M267.60447,239.95413c0,2.53385 -0.37033,4.31729 -1.11099,5.35032c-0.74066,1.03303 -2.14402,1.54954 -4.21008,1.54954h-16.54797c-1.24743,0 -2.29021,-0.18517 -3.12833,-0.5555c-0.83812,-0.37033 -1.44234,-0.90634 -1.81268,-1.60802c-0.37033,-0.70168 -0.61397,-1.38387 -0.73092,-2.04657c-0.11695,-0.6627 -0.17542,-1.44234 -0.17542,-2.33894c0,-1.36438 0.50677,-2.04657 1.52031,-2.04657c1.01354,0 1.52031,0.64321 1.52031,1.92962c0,1.36438 0.23389,2.3097 0.70168,2.83596c0.46779,0.52626 1.30591,0.78939 2.51436,0.78939h15.72934c1.13049,0 1.8614,-0.19491 2.19275,-0.58473c0.33135,-0.38982 0.49702,-1.16947 0.49702,-2.33894v-6.02276h-11.69468c-4.48296,0 -7.76722,-0.69194 -9.85277,-2.07581c-2.08555,-1.38387 -3.12833,-4.12237 -3.12833,-8.21551v-6.3736c0,-4.09314 1.04278,-6.83164 3.12833,-8.21551c2.08555,-1.38387 5.36981,-2.07581 9.85277,-2.07581h1.69573c4.36601,0 7.699,1.22794 9.99895,3.68382v-2.04657c0,-1.36438 0.50677,-2.04657 1.52031,-2.04657c1.01354,0 1.52031,0.6627 1.52031,1.9881v30.46464M264.56385,231.82633v-10.58368c0,-6.86088 -3.33298,-10.29132 -9.99895,-10.29132h-1.69573c-1.9881,0 -3.51815,0.06822 -4.59016,0.20466c-1.07201,0.13644 -2.06606,0.4483 -2.98214,0.93557c-0.91608,0.48728 -1.5398,1.2182 -1.87115,2.19275c-0.33135,0.97456 -0.49702,2.29995 -0.49702,3.97619v6.25665c0,1.67624 0.16567,3.00163 0.49702,3.97619c0.33135,0.97456 0.95507,1.70547 1.87115,2.19275c0.91608,0.48728 1.91013,0.79914 2.98214,0.93557c1.07201,0.13644 2.60207,0.20466 4.59016,0.20466z" data-paper-data="{&quot;elementType&quot;:&quot;letter&quot;,&quot;baseline&quot;:45.703125,&quot;baselineProportion&quot;:0.6953937592867756,&quot;fontSize&quot;:100}"></path><path d="M287.20101,210.95132c-3.31349,0 -5.80836,0.88685 -7.48459,2.66054c-1.67624,1.77369 -2.51436,4.35627 -2.51436,7.74772v11.92857c0,1.3254 -0.50677,1.9881 -1.52031,1.9881c-1.01354,0 -1.52031,-0.6627 -1.52031,-1.9881v-23.7402c0,-1.36438 0.46779,-2.04657 1.40336,-2.04657c1.0915,0 1.63725,0.70168 1.63725,2.10504v1.9881c2.29995,-2.45588 5.63294,-3.68382 9.99895,-3.68382h1.69573c4.48296,0 7.76722,0.69194 9.85277,2.07581c2.08555,1.38387 3.12833,4.12237 3.12833,8.21551v15.08613c0,1.3254 -0.48728,1.9881 -1.46183,1.9881c-1.05252,0 -1.57878,-0.6627 -1.57878,-1.9881v-15.02766c0,-1.67624 -0.16567,-3.00163 -0.49702,-3.97619c-0.33135,-0.97456 -0.95507,-1.70547 -1.87115,-2.19275c-0.91608,-0.48728 -1.91013,-0.79914 -2.98214,-0.93557c-1.07201,-0.13644 -2.60207,-0.20466 -4.59016,-0.20466z" data-paper-data="{&quot;elementType&quot;:&quot;letter&quot;,&quot;baseline&quot;:45.703125,&quot;baselineProportion&quot;:0.9852631578947368,&quot;fontSize&quot;:100}"></path></g></g><g data-paper-data="{&quot;baseline&quot;:62.79296875,&quot;elementType&quot;:&quot;row&quot;}"><g data-paper-data="{&quot;baselineProportion&quot;:0.7582547169811321,&quot;fontSize&quot;:100,&quot;baseline&quot;:62.79296875,&quot;elementType&quot;:&quot;word&quot;}"><path d="M138.60959,290.68593h-0.40931c-2.26097,0 -3.80077,-0.5555 -4.6194,-1.66649c-0.81863,-1.11099 -1.22794,-3.03087 -1.22794,-5.75963v-28.1257c0,-1.36438 0.50677,-2.04657 1.52031,-2.04657c1.01354,0 1.52031,0.68219 1.52031,2.04657v29.11975c0,1.24743 0.22415,2.12453 0.67244,2.6313c0.4483,0.50677 1.29616,0.76015 2.54359,0.76015c1.36438,0 2.04657,0.52626 2.04657,1.57878c0,0.97456 -0.68219,1.46183 -2.04657,1.46183z" data-paper-data="{&quot;elementType&quot;:&quot;letter&quot;,&quot;baseline&quot;:62.79296875,&quot;baselineProportion&quot;:1,&quot;fontSize&quot;:100}"></path><path d="M157.32903,273.43628h8.59559v-3.33298c0,-1.20845 -0.22415,-2.06606 -0.67244,-2.57283c-0.4483,-0.50677 -1.29616,-0.76015 -2.54359,-0.76015h-8.24475c-4.75584,0 -7.13375,1.16947 -7.13375,3.5084c0,1.36438 -0.52626,2.04657 -1.57878,2.04657c-0.97456,0 -1.46183,-0.68219 -1.46183,-2.04657c0,-2.26097 0.89659,-3.91772 2.68978,-4.97024c1.79318,-1.05252 4.15161,-1.57878 7.07528,-1.57878h9.06338c2.26097,0 3.80077,0.54575 4.6194,1.63725c0.81863,1.0915 1.22794,3.00163 1.22794,5.73039v18.0098c0,1.3254 -0.50677,1.9881 -1.52031,1.9881c-1.01354,0 -1.52031,-0.68219 -1.52031,-2.04657v-2.04657c-2.22199,2.45588 -5.53548,3.68382 -9.94048,3.68382h-5.43803c-1.83217,0 -3.33298,-0.65295 -4.50245,-1.95886c-1.16947,-1.30591 -1.7542,-3.05036 -1.7542,-5.23337c0,-3.93721 1.06227,-6.59775 3.1868,-7.98162c2.12453,-1.38387 5.40879,-2.07581 9.85277,-2.07581zM157.32903,276.4769c-1.9881,0 -3.51815,0.06822 -4.59016,0.20466c-1.07201,0.13644 -2.07581,0.4483 -3.01138,0.93557c-0.93557,0.48728 -1.56904,1.2182 -1.90039,2.19275c-0.33135,0.97456 -0.49702,2.29995 -0.49702,3.97619c0,1.01354 0.33135,1.91013 0.99405,2.68978c0.6627,0.77965 1.40336,1.16947 2.22199,1.16947h5.43803c3.27451,0 5.74988,-0.88685 7.42612,-2.66054c1.67624,-1.77369 2.51436,-4.31729 2.51436,-7.63078v-0.8771h-8.59559" data-paper-data="{&quot;elementType&quot;:&quot;letter&quot;,&quot;baseline&quot;:45.01953125,&quot;baselineProportion&quot;:0.9850427350427351,&quot;fontSize&quot;:100}"></path><path d="M188.38635,266.77031c-3.31349,0 -5.80836,0.88685 -7.48459,2.66054c-1.67624,1.77369 -2.51436,4.35627 -2.51436,7.74772v11.92857c0,1.3254 -0.50677,1.9881 -1.52031,1.9881c-1.01354,0 -1.52031,-0.6627 -1.52031,-1.9881v-23.7402c0,-1.36438 0.46779,-2.04657 1.40336,-2.04657c1.0915,0 1.63725,0.70168 1.63725,2.10504v1.9881c2.29995,-2.45588 5.63294,-3.68382 9.99895,-3.68382h1.69573c4.48296,0 7.76722,0.69194 9.85277,2.07581c2.08555,1.38387 3.12833,4.12237 3.12833,8.21551v15.08613c0,1.3254 -0.48728,1.9881 -1.46183,1.9881c-1.05252,0 -1.57878,-0.6627 -1.57878,-1.9881v-15.02766c0,-1.67624 -0.16567,-3.00163 -0.49702,-3.97619c-0.33135,-0.97456 -0.95507,-1.70547 -1.87115,-2.19275c-0.91608,-0.48728 -1.91013,-0.79914 -2.98214,-0.93557c-1.07201,-0.13644 -2.60207,-0.20466 -4.59016,-0.20466z" data-paper-data="{&quot;elementType&quot;:&quot;letter&quot;,&quot;baseline&quot;:45.703125,&quot;baselineProportion&quot;:0.9852631578947368,&quot;fontSize&quot;:100}"></path><path d="M236.28401,295.77312c0,2.53385 -0.37033,4.31729 -1.11099,5.35032c-0.74066,1.03303 -2.14402,1.54954 -4.21008,1.54954h-16.54797c-1.24743,0 -2.29021,-0.18517 -3.12833,-0.5555c-0.83812,-0.37033 -1.44234,-0.90634 -1.81268,-1.60802c-0.37033,-0.70168 -0.61397,-1.38387 -0.73092,-2.04657c-0.11695,-0.6627 -0.17542,-1.44234 -0.17542,-2.33894c0,-1.36438 0.50677,-2.04657 1.52031,-2.04657c1.01354,0 1.52031,0.64321 1.52031,1.92962c0,1.36438 0.23389,2.3097 0.70168,2.83596c0.46779,0.52626 1.30591,0.78939 2.51436,0.78939h15.72934c1.13049,0 1.8614,-0.19491 2.19275,-0.58473c0.33135,-0.38982 0.49702,-1.16947 0.49702,-2.33894v-6.02276h-11.69468c-4.48296,0 -7.76722,-0.69194 -9.85277,-2.07581c-2.08555,-1.38387 -3.12833,-4.12237 -3.12833,-8.21551v-6.3736c0,-4.09314 1.04278,-6.83164 3.12833,-8.21551c2.08555,-1.38387 5.36981,-2.07581 9.85277,-2.07581h1.69573c4.36601,0 7.699,1.22794 9.99895,3.68382v-2.04657c0,-1.36438 0.50677,-2.04657 1.52031,-2.04657c1.01354,0 1.52031,0.6627 1.52031,1.9881v30.46464M233.2434,287.64531v-10.58368c0,-6.86088 -3.33298,-10.29132 -9.99895,-10.29132h-1.69573c-1.9881,0 -3.51815,0.06822 -4.59016,0.20466c-1.07201,0.13644 -2.06606,0.4483 -2.98214,0.93557c-0.91608,0.48728 -1.5398,1.2182 -1.87115,2.19275c-0.33135,0.97456 -0.49702,2.29995 -0.49702,3.97619v6.25665c0,1.67624 0.16567,3.00163 0.49702,3.97619c0.33135,0.97456 0.95507,1.70547 1.87115,2.19275c0.91608,0.48728 1.91013,0.79914 2.98214,0.93557c1.07201,0.13644 2.60207,0.20466 4.59016,0.20466z" data-paper-data="{&quot;elementType&quot;:&quot;letter&quot;,&quot;baseline&quot;:45.703125,&quot;baselineProportion&quot;:0.6953937592867756,&quot;fontSize&quot;:100}"></path><path d="M257.28391,287.64531c3.31349,0 5.80836,-0.88685 7.48459,-2.66054c1.67624,-1.77369 2.51436,-4.35627 2.51436,-7.74772v-11.92857c0,-1.3254 0.50677,-1.9881 1.52031,-1.9881c1.01354,0 1.52031,0.6627 1.52031,1.9881v23.7402c0,1.36438 -0.46779,2.04657 -1.40336,2.04657c-1.0915,0 -1.63725,-0.70168 -1.63725,-2.10504v-1.9881c-2.29995,2.45588 -5.63294,3.68382 -9.99895,3.68382h-1.69573c-4.48296,0 -7.76722,-0.69194 -9.85277,-2.07581c-2.08555,-1.38387 -3.12833,-4.12237 -3.12833,-8.21551v-15.08613c0,-1.3254 0.48728,-1.9881 1.46183,-1.9881c1.05252,0 1.57878,0.6627 1.57878,1.9881v15.02766c0,1.67624 0.16567,3.00163 0.49702,3.97619c0.33135,0.97456 0.95507,1.70547 1.87115,2.19275c0.91608,0.48728 1.91013,0.79914 2.98214,0.93557c1.07201,0.13644 2.60207,0.20466 4.59016,0.20466z" data-paper-data="{&quot;elementType&quot;:&quot;letter&quot;,&quot;baseline&quot;:45.703125,&quot;baselineProportion&quot;:0.9852631578947368,&quot;fontSize&quot;:100}"></path><path d="M289.04292,273.43628h8.59559v-3.33298c0,-1.20845 -0.22415,-2.06606 -0.67244,-2.57283c-0.4483,-0.50677 -1.29616,-0.76015 -2.54359,-0.76015h-8.24475c-4.75584,0 -7.13375,1.16947 -7.13375,3.5084c0,1.36438 -0.52626,2.04657 -1.57878,2.04657c-0.97456,0 -1.46183,-0.68219 -1.46183,-2.04657c0,-2.26097 0.89659,-3.91772 2.68978,-4.97024c1.79318,-1.05252 4.15161,-1.57878 7.07528,-1.57878h9.06338c2.26097,0 3.80077,0.54575 4.6194,1.63725c0.81863,1.0915 1.22794,3.00163 1.22794,5.73039v18.0098c0,1.3254 -0.50677,1.9881 -1.52031,1.9881c-1.01354,0 -1.52031,-0.68219 -1.52031,-2.04657v-2.04657c-2.22199,2.45588 -5.53548,3.68382 -9.94048,3.68382h-5.43803c-1.83217,0 -3.33298,-0.65295 -4.50245,-1.95886c-1.16947,-1.30591 -1.7542,-3.05036 -1.7542,-5.23337c0,-3.93721 1.06227,-6.59775 3.1868,-7.98162c2.12453,-1.38387 5.40879,-2.07581 9.85277,-2.07581zM289.04292,276.4769c-1.9881,0 -3.51815,0.06822 -4.59016,0.20466c-1.07201,0.13644 -2.07581,0.4483 -3.01138,0.93557c-0.93557,0.48728 -1.56904,1.2182 -1.90039,2.19275c-0.33135,0.97456 -0.49702,2.29995 -0.49702,3.97619c0,1.01354 0.33135,1.91013 0.99405,2.68978c0.6627,0.77965 1.40336,1.16947 2.22199,1.16947h5.43803c3.27451,0 5.74988,-0.88685 7.42612,-2.66054c1.67624,-1.77369 2.51436,-4.31729 2.51436,-7.63078v-0.8771h-8.59559" data-paper-data="{&quot;elementType&quot;:&quot;letter&quot;,&quot;baseline&quot;:45.01953125,&quot;baselineProportion&quot;:0.9850427350427351,&quot;fontSize&quot;:100}"></path><path d="M334.07538,295.77312c0,2.53385 -0.37033,4.31729 -1.11099,5.35032c-0.74066,1.03303 -2.14402,1.54954 -4.21008,1.54954h-16.54797c-1.24743,0 -2.29021,-0.18517 -3.12833,-0.5555c-0.83812,-0.37033 -1.44234,-0.90634 -1.81268,-1.60802c-0.37033,-0.70168 -0.61397,-1.38387 -0.73092,-2.04657c-0.11695,-0.6627 -0.17542,-1.44234 -0.17542,-2.33894c0,-1.36438 0.50677,-2.04657 1.52031,-2.04657c1.01354,0 1.52031,0.64321 1.52031,1.92962c0,1.36438 0.23389,2.3097 0.70168,2.83596c0.46779,0.52626 1.30591,0.78939 2.51436,0.78939h15.72934c1.13049,0 1.8614,-0.19491 2.19275,-0.58473c0.33135,-0.38982 0.49702,-1.16947 0.49702,-2.33894v-6.02276h-11.69468c-4.48296,0 -7.76722,-0.69194 -9.85277,-2.07581c-2.08555,-1.38387 -3.12833,-4.12237 -3.12833,-8.21551v-6.3736c0,-4.09314 1.04278,-6.83164 3.12833,-8.21551c2.08555,-1.38387 5.36981,-2.07581 9.85277,-2.07581h1.69573c4.36601,0 7.699,1.22794 9.99895,3.68382v-2.04657c0,-1.36438 0.50677,-2.04657 1.52031,-2.04657c1.01354,0 1.52031,0.6627 1.52031,1.9881v30.46464M331.03476,287.64531v-10.58368c0,-6.86088 -3.33298,-10.29132 -9.99895,-10.29132h-1.69573c-1.9881,0 -3.51815,0.06822 -4.59016,0.20466c-1.07201,0.13644 -2.06606,0.4483 -2.98214,0.93557c-0.91608,0.48728 -1.5398,1.2182 -1.87115,2.19275c-0.33135,0.97456 -0.49702,2.29995 -0.49702,3.97619v6.25665c0,1.67624 0.16567,3.00163 0.49702,3.97619c0.33135,0.97456 0.95507,1.70547 1.87115,2.19275c0.91608,0.48728 1.91013,0.79914 2.98214,0.93557c1.07201,0.13644 2.60207,0.20466 4.59016,0.20466z" data-paper-data="{&quot;elementType&quot;:&quot;letter&quot;,&quot;baseline&quot;:45.703125,&quot;baselineProportion&quot;:0.6953937592867756,&quot;fontSize&quot;:100}"></path><path d="M367.64706,274.02101v2.33894h-24.67577v3.97619c0,1.67624 0.16567,3.00163 0.49702,3.97619c0.33135,0.97456 0.96481,1.70547 1.90039,2.19275c0.93557,0.48728 1.93937,0.79914 3.01138,0.93557c1.07201,0.13644 2.60207,0.20466 4.59016,0.20466h7.83543c1.24743,0 2.0953,-0.27288 2.54359,-0.81863c0.4483,-0.54575 0.67244,-1.48133 0.67244,-2.80672c0,-1.28641 0.50677,-1.92962 1.52031,-1.92962c1.01354,0 1.52031,0.70168 1.52031,2.10504c0,0.89659 -0.05847,1.67624 -0.17542,2.33894c-0.11695,0.6627 -0.36059,1.33514 -0.73092,2.01733c-0.37033,0.68219 -0.97456,1.20845 -1.81268,1.57878c-0.83812,0.37033 -1.88089,0.5555 -3.12833,0.5555h-8.24475c-4.48296,0 -7.77696,-0.69194 -9.882,-2.07581c-2.10504,-1.38387 -3.15756,-4.12237 -3.15756,-8.21551v-6.3736c0,-4.09314 1.05252,-6.83164 3.15756,-8.21551c2.10504,-1.38387 5.39904,-2.07581 9.882,-2.07581h1.69573c4.48296,0 7.76722,0.69194 9.85277,2.07581c2.08555,1.38387 3.12833,4.12237 3.12833,8.21551M354.66597,266.77031h-1.69573c-3.78128,0 -6.38335,0.39957 -7.8062,1.1987c-1.42285,0.79914 -2.15377,2.58257 -2.19275,5.35032h21.63515c-0.03898,-2.76774 -0.7699,-4.55118 -2.19275,-5.35032c-1.42285,-0.79914 -4.00543,-1.1987 -7.74772,-1.1987z" data-paper-data="{&quot;elementType&quot;:&quot;letter&quot;,&quot;baseline&quot;:45.01953125,&quot;baselineProportion&quot;:1,&quot;fontSize&quot;:100}"></path></g></g></g></g></g></svg>