<svg version="1.1" xmlns="http://www.w3.org/2000/svg" xmlns:xlink="http://www.w3.org/1999/xlink" width="500" height="500"><g data-paper-data="{&quot;description&quot;:&quot;Logo for sign language\n======================\n\nThis logo was generated by MarkMaker at http://emblemmatic.org/markmaker/ and may be composed of elements designed by others.\n\nThe font is Source Sans Pro Italic designed by Paul D. Hunt and released under the OFL license via Google Fonts: https://www.google.com/fonts/specimen/Source%20Sans%20Pro. The font includes this copyright statement: Copyright 2010, 2012 Adobe Systems Incorporated (http://www.adobe.com/), with Reserved Font Name 'Source'. All Rights Reserved. Source is a trademark of Adobe Systems Incorporated in the United States and/or other countries.\n\nMarkMaker uses semantic data from the Princeton University WordNet database http://wordnet.princeton.edu and font descriptions from Google Fonts https://www.google.com/fonts.&quot;}" fill="none" fill-rule="nonzero" stroke="none" stroke-width="none" stroke-linecap="butt" stroke-linejoin="miter" stroke-miterlimit="10" stroke-dasharray="" stroke-dashoffset="0" font-family="none" font-weight="none" font-size="none" text-anchor="none" style="mix-blend-mode: normal"><path d="M50,310.52999v-121.05997h400v121.05997z" fill="none" stroke="#b1d1c5" stroke-width="3.5"></path><g data-paper-data="{&quot;elementType&quot;:&quot;logo&quot;}" fill="#b1d1c5" stroke="none" stroke-width="1"><g data-paper-data="{&quot;elementType&quot;:&quot;text&quot;}"><g data-paper-data="{&quot;baseline&quot;:71.2,&quot;elementType&quot;:&quot;row&quot;}"><g data-paper-data="{&quot;baselineProportion&quot;:0.7549234135667395,&quot;fontSize&quot;:100,&quot;baseline&quot;:69,&quot;elementType&quot;:&quot;word&quot;}"><path d="M86.12273,257.32218c0.89106,1.23973 1.95645,2.23733 3.19619,2.99279c1.23973,0.75546 2.59569,1.13319 4.06788,1.13319c0.81358,0 1.57872,-0.12591 2.29544,-0.37773c0.71672,-0.25182 1.35596,-0.59081 1.91771,-1.01697c0.56175,-0.42616 0.9976,-0.92011 1.30753,-1.48187c0.30993,-0.56175 0.4649,-1.17194 0.4649,-1.83054c0,-0.50364 -0.08717,-0.96854 -0.26151,-1.3947c-0.17434,-0.42616 -0.45521,-0.84263 -0.84263,-1.24942c-0.38742,-0.40679 -0.92011,-0.82326 -1.59809,-1.24942c-0.67798,-0.42616 -1.50124,-0.91043 -2.46978,-1.45281c-2.20828,-1.20099 -3.83543,-2.38261 -4.88145,-3.54486c-1.04603,-1.16225 -1.56904,-2.55695 -1.56904,-4.1841c0,-1.23973 0.26151,-2.38261 0.78452,-3.42864c0.52301,-1.04603 1.22036,-1.93708 2.09205,-2.67318c0.87169,-0.73609 1.89834,-1.30753 3.07996,-1.71432c1.18162,-0.40679 2.43104,-0.61018 3.74826,-0.61018c1.74338,0 3.30273,0.34868 4.67806,1.04603c1.37533,0.69735 2.58601,1.60778 3.63203,2.73129l-2.55695,2.49884c-0.77483,-0.77483 -1.62715,-1.43344 -2.55695,-1.97583c-0.9298,-0.54238 -2.03394,-0.81358 -3.31241,-0.81358c-1.51093,0 -2.77971,0.43584 -3.80637,1.30753c-1.02665,0.87169 -1.53998,1.90803 -1.53998,3.10902c0,0.58113 0.1356,1.10414 0.40679,1.56904c0.27119,0.4649 0.63924,0.89106 1.10414,1.27848c0.4649,0.38742 0.9976,0.75546 1.59809,1.10414c0.6005,0.34868 1.23005,0.69735 1.88866,1.04603c1.27848,0.69735 2.33419,1.36564 3.16713,2.00488c0.83295,0.63924 1.51093,1.27848 2.03394,1.91771c0.52301,0.63924 0.89106,1.28816 1.10414,1.94677c0.21308,0.65861 0.31962,1.37533 0.31962,2.15016c0,1.31722 -0.26151,2.51821 -0.78452,3.60298c-0.52301,1.08477 -1.2591,2.00488 -2.20828,2.76034c-0.94917,0.75546 -2.07268,1.33659 -3.37053,1.74338c-1.29785,0.40679 -2.70223,0.61018 -4.21316,0.61018c-0.9298,0 -1.86929,-0.1356 -2.81846,-0.40679c-0.94917,-0.27119 -1.8596,-0.64892 -2.73129,-1.13319c-0.87169,-0.48427 -1.66589,-1.05571 -2.38261,-1.71432c-0.71672,-0.65861 -1.30753,-1.35596 -1.77243,-2.09205z" data-paper-data="{&quot;elementType&quot;:&quot;letter&quot;,&quot;baseline&quot;:49.800000000000004,&quot;baselineProportion&quot;:0.9764705882352941,&quot;fontSize&quot;:100}"></path><path d="M114.36541,235.93677h4.47466l-5.69503,28.24268h-4.41655l5.63691,-28.24268M118.14272,230.06741c-0.77483,0 -1.44313,-0.22276 -2.00488,-0.66829c-0.56175,-0.44553 -0.84263,-1.09445 -0.84263,-1.94677c0,-0.96854 0.33899,-1.77243 1.01697,-2.41167c0.67798,-0.63924 1.4625,-0.95886 2.35356,-0.95886c0.77483,0 1.44313,0.23245 2.00488,0.69735c0.56175,0.4649 0.84263,1.12351 0.84263,1.97583c0,0.96854 -0.33899,1.76275 -1.01697,2.38261c-0.67798,0.61987 -1.4625,0.9298 -2.35356,0.9298z" data-paper-data="{&quot;elementType&quot;:&quot;letter&quot;,&quot;baseline&quot;:69,&quot;baselineProportion&quot;:1,&quot;fontSize&quot;:100}"></path><path d="M149.6397,235.93677l-5.92748,29.57927c-0.77483,3.75794 -2.28576,6.6442 -4.53278,8.65876c-2.24702,2.01457 -5.15264,3.02185 -8.71688,3.02185c-1.89834,0 -3.68046,-0.36805 -5.34635,-1.10414c-1.66589,-0.73609 -3.17682,-1.66589 -4.53278,-2.7894l2.09205,-3.07996c1.08477,0.9298 2.28576,1.724 3.60298,2.38261c1.31722,0.65861 2.77003,0.98791 4.35844,0.98791c2.44073,0 4.37781,-0.76515 5.81125,-2.29544c1.43344,-1.5303 2.4601,-3.57392 3.07996,-6.13087l1.3947,-5.81125h-0.17434c-1.3947,1.35596 -2.88625,2.45041 -4.47466,3.28336c-1.58841,0.83295 -3.29304,1.24942 -5.1139,1.24942c-2.40198,0 -4.36812,-0.83295 -5.89842,-2.49884c-1.5303,-1.66589 -2.29544,-4.14536 -2.29544,-7.4384c0,-2.59569 0.41647,-5.02673 1.24942,-7.29312c0.83295,-2.26639 1.94677,-4.24221 3.34147,-5.92748c1.3947,-1.68526 2.99279,-3.02185 4.79428,-4.00976c1.80149,-0.98791 3.6514,-1.48187 5.54974,-1.48187c1.47218,0 2.80877,0.38742 4.00976,1.16225c1.20099,0.77483 2.13079,1.80149 2.7894,3.07996h0.17434l1.10414,-3.54486h3.66109M132.61274,260.16969c1.35596,0 2.80877,-0.41647 4.35844,-1.24942c1.54967,-0.83295 3.00248,-2.06299 4.35844,-3.69014l2.49884,-12.0874c-0.89106,-1.47218 -1.80149,-2.53758 -2.73129,-3.19619c-0.9298,-0.65861 -1.93708,-0.98791 -3.02185,-0.98791c-1.35596,0 -2.67318,0.3971 -3.95165,1.19131c-1.27848,0.7942 -2.40198,1.8596 -3.37053,3.19619c-0.96854,1.33659 -1.74338,2.86688 -2.3245,4.59089c-0.58113,1.724 -0.87169,3.51581 -0.87169,5.37541c0,2.3245 0.44553,4.0485 1.33659,5.17201c0.89106,1.12351 2.13079,1.68526 3.7192,1.68526z" data-paper-data="{&quot;elementType&quot;:&quot;letter&quot;,&quot;baseline&quot;:49.800000000000004,&quot;baselineProportion&quot;:0.6897506925207755,&quot;fontSize&quot;:100}"></path><path d="M158.9377,235.93677h3.66109l-0.40679,4.24221h0.23245c1.62715,-1.3947 3.23493,-2.56664 4.82334,-3.51581c1.58841,-0.94917 3.27367,-1.42376 5.05579,-1.42376c2.40198,0 4.1163,0.61987 5.14296,1.8596c1.02665,1.23973 1.53998,2.96374 1.53998,5.17201c0,0.65861 -0.02906,1.27848 -0.08717,1.8596c-0.05811,0.58113 -0.18402,1.2591 -0.37773,2.03394l-3.60298,18.01488h-4.41655l3.48675,-17.43375c0.15497,-0.77483 0.27119,-1.3947 0.34868,-1.8596c0.07748,-0.4649 0.11623,-0.94917 0.11623,-1.45281c0,-1.43344 -0.3293,-2.51821 -0.98791,-3.2543c-0.65861,-0.73609 -1.724,-1.10414 -3.19619,-1.10414c-1.12351,0 -2.37293,0.40679 -3.74826,1.22036c-1.37533,0.81358 -2.95405,2.11142 -4.73617,3.89354l-4.00976,19.9907h-4.41655z" data-paper-data="{&quot;elementType&quot;:&quot;letter&quot;,&quot;baseline&quot;:49.800000000000004,&quot;baselineProportion&quot;:1,&quot;fontSize&quot;:100}"></path></g><g data-paper-data="{&quot;baselineProportion&quot;:0.7606837606837606,&quot;fontSize&quot;:100,&quot;baseline&quot;:71.2,&quot;elementType&quot;:&quot;word&quot;}"><path d="M201.01116,222.80335h4.47466l-7.26406,36.20409c-0.07748,0.30993 -0.11623,0.54238 -0.11623,0.69735c0,0.15497 0,0.29056 0,0.40679c0,0.69735 0.3293,1.04603 0.98791,1.04603c0.11623,0 0.23245,-0.00969 0.34868,-0.02906c0.11623,-0.01937 0.30993,-0.0678 0.58113,-0.14528l0.05811,3.42864c-0.38742,0.15497 -0.7942,0.27119 -1.22036,0.34868c-0.42616,0.07748 -0.94917,0.11623 -1.56904,0.11623c-1.23973,0 -2.17922,-0.31962 -2.81846,-0.95886c-0.63924,-0.63924 -0.95886,-1.53998 -0.95886,-2.70223c0,-0.61987 0.11623,-1.43344 0.34868,-2.44073z" data-paper-data="{&quot;elementType&quot;:&quot;letter&quot;,&quot;baseline&quot;:71.2,&quot;baselineProportion&quot;:0.9834254143646408,&quot;fontSize&quot;:100}"></path><path d="M207.63598,254.649c0,-2.71192 0.42616,-5.2495 1.27848,-7.61274c0.85232,-2.36324 1.9952,-4.41655 3.42864,-6.15993c1.43344,-1.74338 3.06059,-3.1187 4.88145,-4.12599c1.82086,-1.00728 3.7192,-1.51093 5.69503,-1.51093c1.51093,0 2.8572,0.38742 4.03882,1.16225c1.18162,0.77483 2.10174,1.80149 2.76034,3.07996h0.23245l1.10414,-3.54486h3.60298l-5.63691,28.24268h-3.66109l0.4649,-4.1841h-0.23245c-1.35596,1.47218 -2.88625,2.6538 -4.59089,3.54486c-1.70463,0.89106 -3.44801,1.33659 -5.23013,1.33659c-2.47947,0 -4.45529,-0.87169 -5.92748,-2.61506c-1.47218,-1.74338 -2.20828,-4.28095 -2.20828,-7.61274M217.39888,261.1576c1.47218,0 2.97342,-0.43584 4.50372,-1.30753c1.5303,-0.87169 2.99279,-2.23733 4.38749,-4.09693l2.55695,-12.61041c-0.81358,-1.47218 -1.70463,-2.53758 -2.67318,-3.19619c-0.96854,-0.65861 -1.9952,-0.98791 -3.07996,-0.98791c-1.3947,0 -2.75066,0.41647 -4.06788,1.24942c-1.31722,0.83295 -2.47947,1.94677 -3.48675,3.34147c-1.00728,1.3947 -1.81117,2.99279 -2.41167,4.79428c-0.6005,1.80149 -0.90074,3.67077 -0.90074,5.60786c0,2.44073 0.4649,4.2519 1.3947,5.43352c0.9298,1.18162 2.1889,1.77243 3.77731,1.77243z" data-paper-data="{&quot;elementType&quot;:&quot;letter&quot;,&quot;baseline&quot;:49.800000000000004,&quot;baselineProportion&quot;:0.9764705882352941,&quot;fontSize&quot;:100}"></path><path d="M243.9563,235.93677h3.66109l-0.40679,4.24221h0.23245c1.62715,-1.3947 3.23493,-2.56664 4.82334,-3.51581c1.58841,-0.94917 3.27367,-1.42376 5.05579,-1.42376c2.40198,0 4.1163,0.61987 5.14296,1.8596c1.02665,1.23973 1.53998,2.96374 1.53998,5.17201c0,0.65861 -0.02906,1.27848 -0.08717,1.8596c-0.05811,0.58113 -0.18402,1.2591 -0.37773,2.03394l-3.60298,18.01488h-4.41655l3.48675,-17.43375c0.15497,-0.77483 0.27119,-1.3947 0.34868,-1.8596c0.07748,-0.4649 0.11623,-0.94917 0.11623,-1.45281c0,-1.43344 -0.3293,-2.51821 -0.98791,-3.2543c-0.65861,-0.73609 -1.724,-1.10414 -3.19619,-1.10414c-1.12351,0 -2.37293,0.40679 -3.74826,1.22036c-1.37533,0.81358 -2.95405,2.11142 -4.73617,3.89354l-4.00976,19.9907h-4.41655z" data-paper-data="{&quot;elementType&quot;:&quot;letter&quot;,&quot;baseline&quot;:49.800000000000004,&quot;baselineProportion&quot;:1,&quot;fontSize&quot;:100}"></path><path d="M296.0251,235.93677l-5.92748,29.57927c-0.77483,3.75794 -2.28576,6.6442 -4.53278,8.65876c-2.24702,2.01457 -5.15264,3.02185 -8.71688,3.02185c-1.89834,0 -3.68046,-0.36805 -5.34635,-1.10414c-1.66589,-0.73609 -3.17682,-1.66589 -4.53278,-2.7894l2.09205,-3.07996c1.08477,0.9298 2.28576,1.724 3.60298,2.38261c1.31722,0.65861 2.77003,0.98791 4.35844,0.98791c2.44073,0 4.37781,-0.76515 5.81125,-2.29544c1.43344,-1.5303 2.4601,-3.57392 3.07996,-6.13087l1.3947,-5.81125h-0.17434c-1.3947,1.35596 -2.88625,2.45041 -4.47466,3.28336c-1.58841,0.83295 -3.29304,1.24942 -5.1139,1.24942c-2.40198,0 -4.36812,-0.83295 -5.89842,-2.49884c-1.5303,-1.66589 -2.29544,-4.14536 -2.29544,-7.4384c0,-2.59569 0.41647,-5.02673 1.24942,-7.29312c0.83295,-2.26639 1.94677,-4.24221 3.34147,-5.92748c1.3947,-1.68526 2.99279,-3.02185 4.79428,-4.00976c1.80149,-0.98791 3.6514,-1.48187 5.54974,-1.48187c1.47218,0 2.80877,0.38742 4.00976,1.16225c1.20099,0.77483 2.13079,1.80149 2.7894,3.07996h0.17434l1.10414,-3.54486h3.66109M278.99814,260.16969c1.35596,0 2.80877,-0.41647 4.35844,-1.24942c1.54967,-0.83295 3.00248,-2.06299 4.35844,-3.69014l2.49884,-12.0874c-0.89106,-1.47218 -1.80149,-2.53758 -2.73129,-3.19619c-0.9298,-0.65861 -1.93708,-0.98791 -3.02185,-0.98791c-1.35596,0 -2.67318,0.3971 -3.95165,1.19131c-1.27848,0.7942 -2.40198,1.8596 -3.37053,3.19619c-0.96854,1.33659 -1.74338,2.86688 -2.3245,4.59089c-0.58113,1.724 -0.87169,3.51581 -0.87169,5.37541c0,2.3245 0.44553,4.0485 1.33659,5.17201c0.89106,1.12351 2.13079,1.68526 3.7192,1.68526z" data-paper-data="{&quot;elementType&quot;:&quot;letter&quot;,&quot;baseline&quot;:49.800000000000004,&quot;baselineProportion&quot;:0.6897506925207755,&quot;fontSize&quot;:100}"></path><path d="M321.07159,264.17945h-3.66109l0.4649,-4.30033h-0.23245c-1.54967,1.35596 -3.12839,2.52789 -4.73617,3.51581c-1.60778,0.98791 -3.28336,1.48187 -5.02673,1.48187c-2.40198,0 -4.1163,-0.62955 -5.14296,-1.88866c-1.02665,-1.2591 -1.53998,-2.97342 -1.53998,-5.14296c0,-0.65861 0.02906,-1.27848 0.08717,-1.8596c0.05811,-0.58113 0.18402,-1.2591 0.37773,-2.03394l3.60298,-18.01488h4.47466l-3.54486,17.43375c-0.15497,0.77483 -0.27119,1.3947 -0.34868,1.8596c-0.07748,0.4649 -0.11623,0.94917 -0.11623,1.45281c0,1.43344 0.3293,2.51821 0.98791,3.2543c0.65861,0.73609 1.724,1.10414 3.19619,1.10414c1.12351,0 2.36324,-0.40679 3.7192,-1.22036c1.35596,-0.81358 2.90563,-2.11142 4.649,-3.89354l4.00976,-19.9907h4.41655z" data-paper-data="{&quot;elementType&quot;:&quot;letter&quot;,&quot;baseline&quot;:48.6,&quot;baselineProportion&quot;:0.9759036144578312,&quot;fontSize&quot;:100}"></path><path d="M330.89261,254.649c0,-2.71192 0.42616,-5.2495 1.27848,-7.61274c0.85232,-2.36324 1.9952,-4.41655 3.42864,-6.15993c1.43344,-1.74338 3.06059,-3.1187 4.88145,-4.12599c1.82086,-1.00728 3.7192,-1.51093 5.69503,-1.51093c1.51093,0 2.8572,0.38742 4.03882,1.16225c1.18162,0.77483 2.10174,1.80149 2.76034,3.07996h0.23245l1.10414,-3.54486h3.60298l-5.63691,28.24268h-3.66109l0.4649,-4.1841h-0.23245c-1.35596,1.47218 -2.88625,2.6538 -4.59089,3.54486c-1.70463,0.89106 -3.44801,1.33659 -5.23013,1.33659c-2.47947,0 -4.45529,-0.87169 -5.92748,-2.61506c-1.47218,-1.74338 -2.20828,-4.28095 -2.20828,-7.61274M340.65551,261.1576c1.47218,0 2.97342,-0.43584 4.50372,-1.30753c1.5303,-0.87169 2.99279,-2.23733 4.38749,-4.09693l2.55695,-12.61041c-0.81358,-1.47218 -1.70463,-2.53758 -2.67318,-3.19619c-0.96854,-0.65861 -1.9952,-0.98791 -3.07996,-0.98791c-1.3947,0 -2.75066,0.41647 -4.06788,1.24942c-1.31722,0.83295 -2.47947,1.94677 -3.48675,3.34147c-1.00728,1.3947 -1.81117,2.99279 -2.41167,4.79428c-0.6005,1.80149 -0.90074,3.67077 -0.90074,5.60786c0,2.44073 0.4649,4.2519 1.3947,5.43352c0.9298,1.18162 2.1889,1.77243 3.77731,1.77243z" data-paper-data="{&quot;elementType&quot;:&quot;letter&quot;,&quot;baseline&quot;:49.800000000000004,&quot;baselineProportion&quot;:0.9764705882352941,&quot;fontSize&quot;:100}"></path><path d="M388.77266,235.93677l-5.92748,29.57927c-0.77483,3.75794 -2.28576,6.6442 -4.53278,8.65876c-2.24702,2.01457 -5.15264,3.02185 -8.71688,3.02185c-1.89834,0 -3.68046,-0.36805 -5.34635,-1.10414c-1.66589,-0.73609 -3.17682,-1.66589 -4.53278,-2.7894l2.09205,-3.07996c1.08477,0.9298 2.28576,1.724 3.60298,2.38261c1.31722,0.65861 2.77003,0.98791 4.35844,0.98791c2.44073,0 4.37781,-0.76515 5.81125,-2.29544c1.43344,-1.5303 2.4601,-3.57392 3.07996,-6.13087l1.3947,-5.81125h-0.17434c-1.3947,1.35596 -2.88625,2.45041 -4.47466,3.28336c-1.58841,0.83295 -3.29304,1.24942 -5.1139,1.24942c-2.40198,0 -4.36812,-0.83295 -5.89842,-2.49884c-1.5303,-1.66589 -2.29544,-4.14536 -2.29544,-7.4384c0,-2.59569 0.41647,-5.02673 1.24942,-7.29312c0.83295,-2.26639 1.94677,-4.24221 3.34147,-5.92748c1.3947,-1.68526 2.99279,-3.02185 4.79428,-4.00976c1.80149,-0.98791 3.6514,-1.48187 5.54974,-1.48187c1.47218,0 2.80877,0.38742 4.00976,1.16225c1.20099,0.77483 2.13079,1.80149 2.7894,3.07996h0.17434l1.10414,-3.54486h3.66109M371.7457,260.16969c1.35596,0 2.80877,-0.41647 4.35844,-1.24942c1.54967,-0.83295 3.00248,-2.06299 4.35844,-3.69014l2.49884,-12.0874c-0.89106,-1.47218 -1.80149,-2.53758 -2.73129,-3.19619c-0.9298,-0.65861 -1.93708,-0.98791 -3.02185,-0.98791c-1.35596,0 -2.67318,0.3971 -3.95165,1.19131c-1.27848,0.7942 -2.40198,1.8596 -3.37053,3.19619c-0.96854,1.33659 -1.74338,2.86688 -2.3245,4.59089c-0.58113,1.724 -0.87169,3.51581 -0.87169,5.37541c0,2.3245 0.44553,4.0485 1.33659,5.17201c0.89106,1.12351 2.13079,1.68526 3.7192,1.68526z" data-paper-data="{&quot;elementType&quot;:&quot;letter&quot;,&quot;baseline&quot;:49.800000000000004,&quot;baselineProportion&quot;:0.6897506925207755,&quot;fontSize&quot;:100}"></path><path d="M392.84054,253.07996c0,-2.67318 0.44553,-5.10422 1.33659,-7.29312c0.89106,-2.1889 2.04362,-4.06788 3.45769,-5.63691c1.41407,-1.56904 3.02185,-2.77971 4.82334,-3.63203c1.80149,-0.85232 3.63203,-1.27848 5.49163,-1.27848c1.58841,0 2.93468,0.26151 4.03882,0.78452c1.10414,0.52301 2.00488,1.23973 2.70223,2.15016c0.69735,0.91043 1.20099,1.9952 1.51093,3.2543c0.30993,1.2591 0.4649,2.60538 0.4649,4.03882c0,1.12351 -0.11623,2.1889 -0.34868,3.19619c-0.23245,1.00728 -0.44553,1.78212 -0.63924,2.3245h-18.36355c-0.27119,1.82086 -0.25182,3.38021 0.05811,4.67806c0.30993,1.29785 0.82326,2.37293 1.53998,3.22524c0.71672,0.85232 1.59809,1.47218 2.64412,1.8596c1.04603,0.38742 2.1889,0.58113 3.42864,0.58113c1.12351,0 2.23733,-0.24214 3.34147,-0.72641c1.10414,-0.48427 2.10174,-1.05571 2.99279,-1.71432l1.74338,2.96374c-1.12351,0.81358 -2.4601,1.52061 -4.00976,2.12111c-1.54967,0.6005 -3.2543,0.90074 -5.1139,0.90074c-3.37053,0 -6.06307,-1.01697 -8.07764,-3.05091c-2.01457,-2.03394 -3.02185,-4.94925 -3.02185,-8.74593M412.59879,247.96606c0.07748,-0.4649 0.14528,-0.9298 0.20339,-1.3947c0.05811,-0.4649 0.08717,-0.96854 0.08717,-1.51093c0,-0.81358 -0.09685,-1.59809 -0.29056,-2.35356c-0.19371,-0.75546 -0.50364,-1.42376 -0.9298,-2.00488c-0.42616,-0.58113 -0.98791,-1.04603 -1.68526,-1.3947c-0.69735,-0.34868 -1.54967,-0.52301 -2.55695,-0.52301c-1.04603,0 -2.06299,0.21308 -3.05091,0.63924c-0.98791,0.42616 -1.90803,1.04603 -2.76034,1.8596c-0.85232,0.81358 -1.61746,1.78212 -2.29544,2.90563c-0.67798,1.12351 -1.19131,2.38261 -1.53998,3.77731z" data-paper-data="{&quot;elementType&quot;:&quot;letter&quot;,&quot;baseline&quot;:49.800000000000004,&quot;baselineProportion&quot;:0.9764705882352941,&quot;fontSize&quot;:100}"></path></g></g></g></g></g></svg>